<svg width="137" height="135" viewBox="0 0 137 135" fill="none" xmlns="http://www.w3.org/2000/svg">
<g opacity="0.5">
<path d="M108.458 16.875H28.5417C22.2364 16.875 17.125 21.9118 17.125 28.125V106.875C17.125 113.088 22.2364 118.125 28.5417 118.125H108.458C114.764 118.125 119.875 113.088 119.875 106.875V28.125C119.875 21.9118 114.764 16.875 108.458 16.875Z" stroke="#929292" stroke-width="1.5" stroke-linecap="round" stroke-linejoin="round"/>
<path d="M48.5195 56.25C53.2485 56.25 57.082 52.4724 57.082 47.8125C57.082 43.1526 53.2485 39.375 48.5195 39.375C43.7906 39.375 39.957 43.1526 39.957 47.8125C39.957 52.4724 43.7906 56.25 48.5195 56.25Z" stroke="#929292" stroke-width="1.5" stroke-linecap="round" stroke-linejoin="round"/>
<path d="M119.876 84.375L91.3346 56.25L28.543 118.125" stroke="#929292" stroke-width="1.5" stroke-linecap="round" stroke-linejoin="round"/>
</g>
</svg>
