<svg xmlns="http://www.w3.org/2000/svg" xmlns:xlink="http://www.w3.org/1999/xlink" width="213.93" height="123.083" viewBox="0 0 213.93 123.083">
  <defs>
    <linearGradient id="linear-gradient" y1="0.5" x2="1" y2="0.5" gradientUnits="objectBoundingBox">
      <stop offset="0" stop-color="#93c6e9"/>
      <stop offset="1" stop-color="#4b7b9d"/>
    </linearGradient>
    <clipPath id="clip-path">
      <path id="Path_6433" data-name="Path 6433" d="M353.079,349.177c-8.773,0-20.635-2.148-27.324-12.383a25.517,25.517,0,0,1-2.222-4.218,27.679,27.679,0,0,1-14.552-2.244c-5.574-2.512-9.273-9-9.425-16.535-.165-8.186,3.865-15.337,10.516-18.663a24.39,24.39,0,0,1,13.3-2.428,24.954,24.954,0,0,1,5.5-8.633c5.585-5.689,13.731-8.573,24.213-8.573,6.336,0,18.039,1.163,25.347,8.934a20.115,20.115,0,0,1,4.445,7.693,32.384,32.384,0,0,1,1.6,9.093v22.755a25.2,25.2,0,0,1-4.094,12.812C373.715,347.027,361.855,349.177,353.079,349.177Zm-20.57-19.265a15.785,15.785,0,0,0,1.226,2.118c3.6,5.219,10.1,7.865,19.343,7.865,9.424,0,15.99-2.749,19.516-8.171a15.764,15.764,0,0,0,1.037-1.861C358.959,322.029,340.337,327.133,332.51,329.912ZM321.025,301.9a14.666,14.666,0,0,0-6.8,1.535c-1.3.65-5.525,3.3-5.387,10.174.078,3.847,1.705,7.244,3.958,8.259a18.433,18.433,0,0,0,8.828,1.58v-21.54Q321.321,301.9,321.025,301.9Zm9.88,1.372v17.374a86.285,86.285,0,0,1,12.267-3.118,66.2,66.2,0,0,1,17.524-.861,46.668,46.668,0,0,1,14.493,3.642v-17.35a25.309,25.309,0,0,1-3.706,1.228l-.054.013a81.758,81.758,0,0,1-18.349,1.66,105.891,105.891,0,0,1-21.854-2.524Zm1.956-9.075.167.033a96.594,96.594,0,0,0,20.052,2.347,73.146,73.146,0,0,0,16.151-1.4c5.331-1.384,2.469-4.353,2.469-4.353-3.585-3.843-10.371-6.048-18.619-6.048-7.835,0-13.723,1.919-17.5,5.7A15.352,15.352,0,0,0,332.86,294.2Zm41.292,1.373Z" transform="translate(-299.55 -275.499)" fill="none"/>
    </clipPath>
    <linearGradient id="linear-gradient-2" x1="0.295" y1="1.134" x2="0.728" y2="0.122" gradientUnits="objectBoundingBox">
      <stop offset="0" stop-color="#4b7b9d"/>
      <stop offset="0.05" stop-color="#4b7b9d" stop-opacity="0.937"/>
      <stop offset="0.617" stop-color="#4b7b9d" stop-opacity="0.267"/>
      <stop offset="0.869" stop-color="#4b7b9d" stop-opacity="0"/>
    </linearGradient>
    <linearGradient id="linear-gradient-3" x1="0.5" x2="0.5" y2="1" gradientUnits="objectBoundingBox">
      <stop offset="0" stop-color="#4b7b9d"/>
      <stop offset="0.393" stop-color="#4b7b9d" stop-opacity="0.573"/>
      <stop offset="0.805" stop-color="#4b7b9d" stop-opacity="0.161"/>
      <stop offset="1" stop-color="#4b7b9d" stop-opacity="0"/>
    </linearGradient>
    <linearGradient id="linear-gradient-4" x1="0.976" y1="0.5" x2="0.342" y2="0.5" xlink:href="#linear-gradient-3"/>
    <linearGradient id="linear-gradient-5" x1="0.015" y1="0.674" x2="1.01" y2="0.33" xlink:href="#linear-gradient-3"/>
    <linearGradient id="linear-gradient-6" x1="1" y1="0.5" x2="0" y2="0.5" gradientUnits="objectBoundingBox">
      <stop offset="0" stop-color="#355e82"/>
      <stop offset="0.281" stop-color="#3b668a" stop-opacity="0.694"/>
      <stop offset="0.769" stop-color="#467597" stop-opacity="0.196"/>
      <stop offset="1" stop-color="#4b7b9d" stop-opacity="0"/>
    </linearGradient>
    <linearGradient id="linear-gradient-7" x1="0.5" x2="0.5" y2="1" gradientUnits="objectBoundingBox">
      <stop offset="0.005" stop-color="#355e82"/>
      <stop offset="0.285" stop-color="#355e82" stop-opacity="0.694"/>
      <stop offset="0.771" stop-color="#355e82" stop-opacity="0.196"/>
      <stop offset="1" stop-color="#355e82" stop-opacity="0"/>
    </linearGradient>
  </defs>
  <g id="Group_2540" data-name="Group 2540" transform="translate(-76.753 -275.499)">
    <g id="Group_2235" data-name="Group 2235" transform="translate(76.753 365.101)">
      <g id="Group_2234" data-name="Group 2234" transform="translate(0 0)">
        <path id="Path_6414" data-name="Path 6414" d="M113.746,602.275H100.026v5.505H112.62v4.5H100.026v6.666h14.353v4.661H94.732V597.684h19.014Z" transform="translate(-94.732 -597.674)" fill="#8e9ba8"/>
        <path id="Path_6415" data-name="Path 6415" d="M175.993,634.8a3.337,3.337,0,0,0,.689,1.9q.936,1,3.464,1a5.3,5.3,0,0,0,2.359-.44,1.473,1.473,0,0,0,.17-2.6,28.755,28.755,0,0,0-5.244-1.513,10.89,10.89,0,0,1-4.6-2.023,4.383,4.383,0,0,1-1.337-3.447,5.975,5.975,0,0,1,2.089-4.565,8.4,8.4,0,0,1,5.878-1.908,10.8,10.8,0,0,1,5.861,1.433q2.265,1.434,2.6,4.951h-5.013a2.966,2.966,0,0,0-.547-1.53,3.446,3.446,0,0,0-2.822-1.02,4.063,4.063,0,0,0-2.337.51,1.468,1.468,0,0,0-.7,1.2,1.308,1.308,0,0,0,.741,1.249,32.023,32.023,0,0,0,5.234,1.39,9.6,9.6,0,0,1,4.491,2.128,4.832,4.832,0,0,1,1.478,3.606,5.821,5.821,0,0,1-2.124,4.652q-2.124,1.8-6.565,1.8-4.53,0-6.688-1.908a6.2,6.2,0,0,1-2.159-4.863Z" transform="translate(-150.804 -614.989)" fill="#8e9ba8"/>
        <path id="Path_6416" data-name="Path 6416" d="M258.886,624.154q2.345,2.48,2.346,7.282,0,5.066-2.293,7.721a7.44,7.44,0,0,1-5.9,2.656,6.191,6.191,0,0,1-3.824-1.144,7.387,7.387,0,0,1-1.629-1.847v9.991h-4.96V622.1h4.8v2.832a8.063,8.063,0,0,1,1.735-1.97,6.4,6.4,0,0,1,4-1.284A7.582,7.582,0,0,1,258.886,624.154Zm-3.847,3.606a3.567,3.567,0,0,0-3.314-1.706,3.769,3.769,0,0,0-3.785,2.586,9.713,9.713,0,0,0-.533,3.483q0,3.342,1.793,4.7a4.117,4.117,0,0,0,2.524.792,3.67,3.67,0,0,0,3.226-1.618,8.476,8.476,0,0,0,.089-8.232Z" transform="translate(-203.589 -615.332)" fill="#8e9ba8"/>
        <path id="Path_6417" data-name="Path 6417" d="M328.838,621.55q.1.009.431.026v5.136q-.475-.053-.844-.07t-.6-.018q-3.026,0-4.063,1.97a7.665,7.665,0,0,0-.58,3.412v9.164h-5.048V622h4.784v3.342a10.594,10.594,0,0,1,2.023-2.621,5.507,5.507,0,0,1,3.659-1.178Q328.741,621.541,328.838,621.55Z" transform="translate(-259.171 -615.234)" fill="#8e9ba8"/>
        <path id="Path_6418" data-name="Path 6418" d="M371.533,622.239a7.8,7.8,0,0,1,3.313,2.836,9.421,9.421,0,0,1,1.528,3.964,24.51,24.51,0,0,1,.165,3.8H362.575a4.6,4.6,0,0,0,2,4.045,5.088,5.088,0,0,0,2.764.721,3.894,3.894,0,0,0,3.815-2.2h5.118a6.259,6.259,0,0,1-1.858,3.465,9.316,9.316,0,0,1-7.213,2.8,10.449,10.449,0,0,1-6.753-2.359q-2.926-2.359-2.926-7.675,0-4.982,2.641-7.64a9.242,9.242,0,0,1,6.856-2.658A10.916,10.916,0,0,1,371.533,622.239Zm-7.5,4.331a5.208,5.208,0,0,0-1.335,2.967h8.636A4.183,4.183,0,0,0,370,626.508a4.394,4.394,0,0,0-2.973-1.034A3.975,3.975,0,0,0,364.034,626.57Z" transform="translate(-288.166 -615.087)" fill="#8e9ba8"/>
        <path id="Path_6419" data-name="Path 6419" d="M431.525,634.8a3.335,3.335,0,0,0,.689,1.9q.937,1,3.464,1a5.3,5.3,0,0,0,2.359-.44,1.473,1.473,0,0,0,.17-2.6,28.767,28.767,0,0,0-5.244-1.513,10.892,10.892,0,0,1-4.6-2.023,4.384,4.384,0,0,1-1.337-3.447,5.975,5.975,0,0,1,2.089-4.565,8.4,8.4,0,0,1,5.878-1.908,10.8,10.8,0,0,1,5.861,1.433q2.265,1.434,2.6,4.951h-5.013a2.962,2.962,0,0,0-.547-1.53,3.446,3.446,0,0,0-2.822-1.02,4.064,4.064,0,0,0-2.337.51,1.467,1.467,0,0,0-.7,1.2,1.307,1.307,0,0,0,.741,1.249,32.025,32.025,0,0,0,5.234,1.39,9.6,9.6,0,0,1,4.491,2.128,4.832,4.832,0,0,1,1.478,3.606,5.821,5.821,0,0,1-2.124,4.652q-2.124,1.8-6.565,1.8-4.529,0-6.688-1.908a6.2,6.2,0,0,1-2.159-4.863Z" transform="translate(-338.891 -614.989)" fill="#8e9ba8"/>
        <path id="Path_6420" data-name="Path 6420" d="M499.239,634.8a3.334,3.334,0,0,0,.69,1.9q.936,1,3.464,1a5.3,5.3,0,0,0,2.36-.44,1.473,1.473,0,0,0,.17-2.6,28.769,28.769,0,0,0-5.244-1.513,10.89,10.89,0,0,1-4.6-2.023,4.384,4.384,0,0,1-1.337-3.447,5.974,5.974,0,0,1,2.089-4.565,8.4,8.4,0,0,1,5.878-1.908,10.8,10.8,0,0,1,5.861,1.433q2.265,1.434,2.6,4.951h-5.013a2.965,2.965,0,0,0-.547-1.53,3.446,3.446,0,0,0-2.822-1.02,4.064,4.064,0,0,0-2.337.51,1.467,1.467,0,0,0-.7,1.2A1.307,1.307,0,0,0,500.49,628a32.012,32.012,0,0,0,5.234,1.39,9.6,9.6,0,0,1,4.491,2.128,4.832,4.832,0,0,1,1.478,3.606,5.82,5.82,0,0,1-2.124,4.652q-2.124,1.8-6.565,1.8-4.53,0-6.688-1.908a6.2,6.2,0,0,1-2.159-4.863Z" transform="translate(-388.733 -614.989)" fill="#8e9ba8"/>
        <path id="Path_6421" data-name="Path 6421" d="M579.1,638.383q-2.427,3-7.37,3t-7.37-3a11.895,11.895,0,0,1,0-14.4q2.427-3.04,7.37-3.041t7.37,3.041a11.9,11.9,0,0,1,0,14.4Zm-4.01-2.771a8.95,8.95,0,0,0,0-8.878,4.455,4.455,0,0,0-6.763,0,8.892,8.892,0,0,0,0,8.878,4.44,4.44,0,0,0,6.763,0Z" transform="translate(-438.624 -614.793)" fill="#8e9ba8"/>
        <path id="Path_6422" data-name="Path 6422" d="M643.773,623.583V597.647h2.449v23.846h13.9v2.089Z" transform="translate(-498.861 -597.647)" fill="#8e9ba8"/>
        <path id="Path_6423" data-name="Path 6423" d="M716.2,631.59q.612-.072,1.459-.216a5.493,5.493,0,0,0,1.387-.4,1.147,1.147,0,0,0,.666-.847,5.313,5.313,0,0,0,.126-1.1,3.686,3.686,0,0,0-1.063-2.72,4.96,4.96,0,0,0-3.584-1.063,9.961,9.961,0,0,0-2.053.2,4.472,4.472,0,0,0-1.639.685,3.773,3.773,0,0,0-1.153,1.3,5.482,5.482,0,0,0-.594,2.035h-2.2a6.674,6.674,0,0,1,.756-2.828,5.747,5.747,0,0,1,1.675-1.909,6.959,6.959,0,0,1,2.378-1.081,11.622,11.622,0,0,1,2.864-.342,11.055,11.055,0,0,1,2.647.306,6.14,6.14,0,0,1,2.161.973,4.523,4.523,0,0,1,1.441,1.783A6.444,6.444,0,0,1,722,629.1v10.158q0,1.261.45,1.6t1.819-.162V642.4q-.252.072-.738.216a3.375,3.375,0,0,1-.955.144,4.311,4.311,0,0,1-.973-.108,1.667,1.667,0,0,1-.865-.342,2.108,2.108,0,0,1-.522-.648,2.667,2.667,0,0,1-.27-.828,5.969,5.969,0,0,1-.072-.955,9.381,9.381,0,0,1-3.134,2.306,9.224,9.224,0,0,1-3.818.792,8.546,8.546,0,0,1-2.359-.324,5.709,5.709,0,0,1-2-1.009,4.993,4.993,0,0,1-1.369-1.675,5.131,5.131,0,0,1-.5-2.359q0-4.755,6.52-5.619Zm3.638,1.081a10.586,10.586,0,0,1-2.774.757q-1.4.18-2.809.288a7.923,7.923,0,0,0-3.872,1.117,3.2,3.2,0,0,0-1.387,2.846,3.081,3.081,0,0,0,.342,1.495,3.15,3.15,0,0,0,.9,1.045,3.794,3.794,0,0,0,1.3.612,5.74,5.74,0,0,0,1.5.2,9.814,9.814,0,0,0,2.521-.324,6.814,6.814,0,0,0,2.179-.991,5.052,5.052,0,0,0,1.531-1.693,4.891,4.891,0,0,0,.576-2.432Z" transform="translate(-545.171 -616.533)" fill="#8e9ba8"/>
        <path id="Path_6424" data-name="Path 6424" d="M781.049,623.583h-2.161V597.647h2.161v10.266a6.687,6.687,0,0,1,2.864-2.611,8.6,8.6,0,0,1,3.8-.883,7.932,7.932,0,0,1,3.692.811A7.58,7.58,0,0,1,794,607.391a9.3,9.3,0,0,1,1.531,3.152,13.849,13.849,0,0,1,.5,3.746,15.286,15.286,0,0,1-.468,3.854,8.447,8.447,0,0,1-1.495,3.116,7.176,7.176,0,0,1-2.612,2.071,8.9,8.9,0,0,1-3.854.757,7.059,7.059,0,0,1-1.837-.252,8.693,8.693,0,0,1-1.819-.72,7.3,7.3,0,0,1-1.621-1.171,5.838,5.838,0,0,1-1.207-1.639h-.072Zm0-9.4a11.493,11.493,0,0,0,.414,3.152,7.666,7.666,0,0,0,1.207,2.522,5.683,5.683,0,0,0,1.981,1.675,5.81,5.81,0,0,0,2.7.612,6.42,6.42,0,0,0,2.522-.486,5.773,5.773,0,0,0,2.017-1.423,6.639,6.639,0,0,0,1.351-2.287,9.18,9.18,0,0,0,.486-3.116,12.2,12.2,0,0,0-.288-3.3,7.87,7.87,0,0,0-1.153-2.683,5.712,5.712,0,0,0-2.035-1.819,6.051,6.051,0,0,0-2.9-.667,5.5,5.5,0,0,0-2.647.631,6.117,6.117,0,0,0-1.981,1.693,7.8,7.8,0,0,0-1.243,2.486A10.294,10.294,0,0,0,781.049,614.181Z" transform="translate(-598.314 -597.647)" fill="#8e9ba8"/>
        <path id="Path_6425" data-name="Path 6425" d="M851.781,636.633a5.479,5.479,0,0,0,1.819,3.4,6.161,6.161,0,0,0,3.765.991,6.506,6.506,0,0,0,2.053-.288,4.121,4.121,0,0,0,1.423-.775,3.341,3.341,0,0,0,.846-1.1,3.011,3.011,0,0,0,.288-1.3,2.388,2.388,0,0,0-.882-2.035,6.669,6.669,0,0,0-2.215-1.044,28.544,28.544,0,0,0-2.882-.648,14.1,14.1,0,0,1-2.881-.81,5.77,5.77,0,0,1-2.216-1.549,4.184,4.184,0,0,1-.882-2.846,4.863,4.863,0,0,1,1.711-3.836,7.134,7.134,0,0,1,4.845-1.495,8.27,8.27,0,0,1,4.917,1.351,6.179,6.179,0,0,1,2.288,4.521h-2.2a4.043,4.043,0,0,0-1.639-3.044,6.108,6.108,0,0,0-3.4-.883,4.851,4.851,0,0,0-3.134.883,2.854,2.854,0,0,0-1.08,2.323,2.265,2.265,0,0,0,.883,1.927,7.172,7.172,0,0,0,2.215,1.081q1.333.414,2.882.738a14.192,14.192,0,0,1,2.882.919,6.31,6.31,0,0,1,2.215,1.6,4.128,4.128,0,0,1,.883,2.81,4.743,4.743,0,0,1-.576,2.359,5.017,5.017,0,0,1-1.585,1.711,7.355,7.355,0,0,1-2.4,1.027,12.716,12.716,0,0,1-3.044.342,8.221,8.221,0,0,1-2.936-.486,6.373,6.373,0,0,1-2.18-1.351,6.218,6.218,0,0,1-1.4-2.017,7.086,7.086,0,0,1-.576-2.486Z" transform="translate(-650.351 -616.533)" fill="#8e9ba8"/>
      </g>
    </g>
    <g id="Group_2239" data-name="Group 2239" transform="translate(130.683 275.499)">
      <path id="Path_6426" data-name="Path 6426" d="M353.079,349.177c-8.773,0-20.635-2.148-27.324-12.383a25.517,25.517,0,0,1-2.222-4.218,27.679,27.679,0,0,1-14.552-2.244c-5.574-2.512-9.273-9-9.425-16.535-.165-8.186,3.865-15.337,10.516-18.663a24.39,24.39,0,0,1,13.3-2.428,24.954,24.954,0,0,1,5.5-8.633c5.585-5.689,13.731-8.573,24.213-8.573,6.336,0,18.039,1.163,25.347,8.934a20.115,20.115,0,0,1,4.445,7.693,32.384,32.384,0,0,1,1.6,9.093v22.755a25.2,25.2,0,0,1-4.094,12.812C373.715,347.027,361.855,349.177,353.079,349.177Zm-20.57-19.265a15.785,15.785,0,0,0,1.226,2.118c3.6,5.219,10.1,7.865,19.343,7.865,9.424,0,15.99-2.749,19.516-8.171a15.764,15.764,0,0,0,1.037-1.861C358.959,322.029,340.337,327.133,332.51,329.912ZM321.025,301.9a14.666,14.666,0,0,0-6.8,1.535c-1.3.65-5.525,3.3-5.387,10.174.078,3.847,1.705,7.244,3.958,8.259a18.433,18.433,0,0,0,8.828,1.58v-21.54Q321.321,301.9,321.025,301.9Zm9.88,1.372v17.374a86.285,86.285,0,0,1,12.267-3.118,66.2,66.2,0,0,1,17.524-.861,46.668,46.668,0,0,1,14.493,3.642v-17.35a25.309,25.309,0,0,1-3.706,1.228l-.054.013a81.758,81.758,0,0,1-18.349,1.66,105.891,105.891,0,0,1-21.854-2.524Zm1.956-9.075.167.033a96.594,96.594,0,0,0,20.052,2.347,73.146,73.146,0,0,0,16.151-1.4c5.331-1.384,2.469-4.353,2.469-4.353-3.585-3.843-10.371-6.048-18.619-6.048-7.835,0-13.723,1.919-17.5,5.7A15.352,15.352,0,0,0,332.86,294.2Zm41.292,1.373Z" transform="translate(-299.55 -275.499)" fill="url(#linear-gradient)"/>
      <g id="Group_2238" data-name="Group 2238">
        <g id="Group_2237" data-name="Group 2237" clip-path="url(#clip-path)">
          <g id="Group_2236" data-name="Group 2236" transform="translate(5.248 3.046)">
            <path id="Path_6427" data-name="Path 6427" d="M389.795,301.2s3.615.514,9.491,1.492c6.215-6.37,11.629-7.724,11.629-7.724l-9.04-7.929S391.735,291.912,389.795,301.2Z" transform="translate(-371.224 -287.039)" opacity="0.41" fill="url(#linear-gradient-2)"/>
            <path id="Path_6428" data-name="Path 6428" d="M379.94,375.562s4.5.42,9.282,1.363c.677,6.068.967,15.061.967,15.061l-11.409.193S379.07,378.863,379.94,375.562Z" transform="translate(-363.116 -352.197)" opacity="0.41" fill="url(#linear-gradient-3)"/>
            <path id="Path_6429" data-name="Path 6429" d="M338.167,450.142a28.983,28.983,0,0,1-1.91-9.127c-11.313-1.732-11.555-5.793-11.555-5.793l-5.27,10.636S326.2,453.362,338.167,450.142Z" transform="translate(-319.433 -396.112)" opacity="0.41" fill="url(#linear-gradient-4)"/>
            <path id="Path_6430" data-name="Path 6430" d="M418.345,434.259s.18,6.245,1.6,9.266c8.967-2.072,16.057-3.361,16.057-3.361l-1.032-10.313S422.342,431.19,418.345,434.259Z" transform="translate(-392.238 -392.157)" opacity="0.41" fill="url(#linear-gradient-5)"/>
            <path id="Path_6431" data-name="Path 6431" d="M535.766,440.689s1.556-3.081,1.556-9.554c-7.929-4.78-17.5-5.07-17.5-5.07l.145,11.216A43.147,43.147,0,0,1,535.766,440.689Z" transform="translate(-466.931 -389.371)" opacity="0.41" fill="url(#linear-gradient-6)"/>
            <path id="Path_6432" data-name="Path 6432" d="M584.87,349.327s10.076-3.683,7.683-10.833c0,0,2.438.649,2.244,19.858.065,2.578.065,4.835.065,4.835l-10.443-1.031Z" transform="translate(-514.479 -324.913)" opacity="0.58" fill="url(#linear-gradient-7)"/>
          </g>
        </g>
      </g>
    </g>
  </g>
</svg>
