<svg xmlns="http://www.w3.org/2000/svg" xmlns:xlink="http://www.w3.org/1999/xlink" width="187.227" height="111.987" viewBox="0 0 187.227 111.987">
  <defs>
    <clipPath id="clip-path">
      <path id="Path_6433" data-name="Path 6433" d="M346.4,339.98c-7.678,0-18.059-1.88-23.914-10.838a22.333,22.333,0,0,1-1.945-3.692,24.224,24.224,0,0,1-12.736-1.964c-4.878-2.2-8.116-7.879-8.248-14.471-.144-7.164,3.382-13.423,9.2-16.333a21.345,21.345,0,0,1,11.638-2.125A21.838,21.838,0,0,1,325.207,283c4.888-4.979,12.017-7.5,21.191-7.5,5.545,0,15.787,1.018,22.183,7.819a17.6,17.6,0,0,1,3.891,6.732,28.342,28.342,0,0,1,1.4,7.958v19.914a22.055,22.055,0,0,1-3.583,11.213C364.457,338.1,354.078,339.98,346.4,339.98Zm-18-16.86a13.818,13.818,0,0,0,1.073,1.853c3.147,4.567,8.843,6.883,16.929,6.883,8.247,0,13.994-2.406,17.08-7.151a13.8,13.8,0,0,0,.908-1.629C351.543,316.221,335.246,320.687,328.4,323.12ZM318.344,298.6a12.835,12.835,0,0,0-5.953,1.344c-1.137.568-4.835,2.89-4.714,8.9.068,3.367,1.492,6.34,3.464,7.228a16.132,16.132,0,0,0,7.726,1.383V298.613Q318.6,298.605,318.344,298.6Zm8.647,1.2v15.205a75.511,75.511,0,0,1,10.736-2.729,57.938,57.938,0,0,1,15.337-.754,40.843,40.843,0,0,1,12.684,3.187V299.531a22.148,22.148,0,0,1-3.244,1.075l-.047.012A71.551,71.551,0,0,1,346.4,302.07a92.673,92.673,0,0,1-19.126-2.209Zm1.711-7.942.146.029a84.535,84.535,0,0,0,17.549,2.054,64.014,64.014,0,0,0,14.135-1.221c4.665-1.211,2.16-3.81,2.16-3.81-3.138-3.364-9.077-5.293-16.3-5.293-6.857,0-12.01,1.68-15.316,4.992A13.435,13.435,0,0,0,328.7,291.863Zm36.138,1.2Z" transform="translate(-299.551 -275.499)" fill="#fff"/>
    </clipPath>
  </defs>
  <g id="Group_3070" data-name="Group 3070" transform="translate(-213.683 -218.499)">
    <g id="Group_2235" data-name="Group 2235" transform="translate(213.683 301.184)">
      <g id="Group_2234" data-name="Group 2234" transform="translate(0 0)">
        <path id="Path_6414" data-name="Path 6414" d="M111.372,601.7H99.365v4.818h11.022v3.941H99.365v5.834h12.561v4.079H94.732v-22.69h16.64Z" transform="translate(-94.732 -597.675)" fill="#fff"/>
        <path id="Path_6415" data-name="Path 6415" d="M175.359,633.107a2.92,2.92,0,0,0,.6,1.662,4.09,4.09,0,0,0,3.032.878,4.639,4.639,0,0,0,2.065-.385,1.289,1.289,0,0,0,.149-2.278,25.163,25.163,0,0,0-4.59-1.324,9.532,9.532,0,0,1-4.03-1.771,3.836,3.836,0,0,1-1.17-3.017,5.229,5.229,0,0,1,1.828-3.995,7.352,7.352,0,0,1,5.145-1.67,9.453,9.453,0,0,1,5.129,1.255A5.373,5.373,0,0,1,185.8,626.8h-4.387a2.6,2.6,0,0,0-.478-1.339,3.016,3.016,0,0,0-2.47-.893,3.556,3.556,0,0,0-2.045.446,1.285,1.285,0,0,0-.61,1.047,1.144,1.144,0,0,0,.648,1.093,28.028,28.028,0,0,0,4.581,1.216,8.4,8.4,0,0,1,3.93,1.862,4.229,4.229,0,0,1,1.293,3.156,5.1,5.1,0,0,1-1.859,4.072q-1.859,1.578-5.745,1.578-3.964,0-5.854-1.67a5.428,5.428,0,0,1-1.89-4.256Z" transform="translate(-153.314 -615.765)" fill="#fff"/>
        <path id="Path_6416" data-name="Path 6416" d="M256.856,623.844q2.053,2.17,2.053,6.373,0,4.433-2.007,6.758a6.512,6.512,0,0,1-5.167,2.325,5.418,5.418,0,0,1-3.347-1,6.465,6.465,0,0,1-1.425-1.616v8.744h-4.341V622.043h4.2v2.478a7.057,7.057,0,0,1,1.518-1.724,5.6,5.6,0,0,1,3.5-1.124A6.636,6.636,0,0,1,256.856,623.844ZM253.489,627a3.121,3.121,0,0,0-2.9-1.493,3.3,3.3,0,0,0-3.313,2.263,8.5,8.5,0,0,0-.467,3.048q0,2.925,1.569,4.11a3.6,3.6,0,0,0,2.209.693,3.211,3.211,0,0,0,2.823-1.416,7.418,7.418,0,0,0,.078-7.2Z" transform="translate(-208.461 -616.124)" fill="#fff"/>
        <path id="Path_6417" data-name="Path 6417" d="M327.5,621.549c.056.005.182.013.377.023v4.495q-.415-.046-.739-.061t-.523-.016q-2.648,0-3.556,1.724a6.708,6.708,0,0,0-.508,2.986v8.02h-4.418V621.941h4.187v2.925a9.271,9.271,0,0,1,1.77-2.294,4.82,4.82,0,0,1,3.2-1.031Q327.417,621.541,327.5,621.549Z" transform="translate(-266.531 -616.021)" fill="#fff"/>
        <path id="Path_6418" data-name="Path 6418" d="M369.784,622.127a6.823,6.823,0,0,1,2.9,2.482,8.245,8.245,0,0,1,1.337,3.469,21.456,21.456,0,0,1,.145,3.33h-12.22a4.025,4.025,0,0,0,1.755,3.54,4.452,4.452,0,0,0,2.419.631,3.408,3.408,0,0,0,3.339-1.924h4.479a5.478,5.478,0,0,1-1.626,3.033A8.153,8.153,0,0,1,366,639.136a9.144,9.144,0,0,1-5.91-2.064q-2.56-2.064-2.56-6.717,0-4.36,2.311-6.686a8.088,8.088,0,0,1,6-2.327A9.554,9.554,0,0,1,369.784,622.127Zm-6.563,3.79a4.558,4.558,0,0,0-1.169,2.6h7.558a3.661,3.661,0,0,0-1.169-2.651,3.846,3.846,0,0,0-2.6-.9A3.479,3.479,0,0,0,363.221,625.917Z" transform="translate(-296.824 -615.868)" fill="#fff"/>
        <path id="Path_6419" data-name="Path 6419" d="M430.891,633.107a2.918,2.918,0,0,0,.6,1.662,4.091,4.091,0,0,0,3.032.878,4.637,4.637,0,0,0,2.065-.385,1.289,1.289,0,0,0,.149-2.278,25.174,25.174,0,0,0-4.59-1.324,9.534,9.534,0,0,1-4.03-1.771,3.836,3.836,0,0,1-1.17-3.017,5.229,5.229,0,0,1,1.828-3.995,7.352,7.352,0,0,1,5.145-1.67,9.453,9.453,0,0,1,5.129,1.255,5.372,5.372,0,0,1,2.276,4.333H436.94a2.592,2.592,0,0,0-.478-1.339,3.016,3.016,0,0,0-2.47-.893,3.556,3.556,0,0,0-2.045.446,1.284,1.284,0,0,0-.61,1.047,1.144,1.144,0,0,0,.648,1.093,28.028,28.028,0,0,0,4.581,1.216,8.4,8.4,0,0,1,3.93,1.862,4.229,4.229,0,0,1,1.293,3.156,5.094,5.094,0,0,1-1.859,4.072q-1.859,1.578-5.745,1.578-3.964,0-5.853-1.67a5.428,5.428,0,0,1-1.89-4.256Z" transform="translate(-349.82 -615.765)" fill="#fff"/>
        <path id="Path_6420" data-name="Path 6420" d="M498.6,633.107a2.918,2.918,0,0,0,.6,1.662,4.09,4.09,0,0,0,3.031.878,4.64,4.64,0,0,0,2.065-.385,1.289,1.289,0,0,0,.149-2.278,25.176,25.176,0,0,0-4.59-1.324,9.532,9.532,0,0,1-4.03-1.771,3.837,3.837,0,0,1-1.17-3.017,5.229,5.229,0,0,1,1.828-3.995,7.352,7.352,0,0,1,5.145-1.67,9.454,9.454,0,0,1,5.129,1.255,5.372,5.372,0,0,1,2.275,4.333h-4.387a2.6,2.6,0,0,0-.478-1.339,3.016,3.016,0,0,0-2.47-.893,3.556,3.556,0,0,0-2.045.446,1.284,1.284,0,0,0-.61,1.047,1.144,1.144,0,0,0,.648,1.093,28.015,28.015,0,0,0,4.58,1.216,8.4,8.4,0,0,1,3.93,1.862,4.229,4.229,0,0,1,1.293,3.156,5.094,5.094,0,0,1-1.859,4.072q-1.859,1.578-5.745,1.578-3.964,0-5.854-1.67a5.428,5.428,0,0,1-1.889-4.256Z" transform="translate(-401.892 -615.765)" fill="#fff"/>
        <path id="Path_6421" data-name="Path 6421" d="M576.961,636.206q-2.124,2.622-6.45,2.622t-6.45-2.622a10.41,10.41,0,0,1,0-12.6q2.124-2.661,6.45-2.661t6.45,2.661a10.411,10.411,0,0,1,0,12.6Zm-3.51-2.425a7.833,7.833,0,0,0,0-7.77,3.9,3.9,0,0,0-5.919,0,7.782,7.782,0,0,0,0,7.77,3.885,3.885,0,0,0,5.919,0Z" transform="translate(-454.017 -615.56)" fill="#fff"/>
        <path id="Path_6422" data-name="Path 6422" d="M643.773,620.345v-22.7h2.143v20.87h12.169v1.828Z" transform="translate(-516.949 -597.647)" fill="#fff"/>
        <path id="Path_6423" data-name="Path 6423" d="M715.012,630.556q.535-.063,1.277-.189a4.806,4.806,0,0,0,1.214-.347,1,1,0,0,0,.583-.741,4.651,4.651,0,0,0,.111-.961,3.225,3.225,0,0,0-.93-2.38,4.341,4.341,0,0,0-3.137-.93,8.717,8.717,0,0,0-1.8.173,3.914,3.914,0,0,0-1.435.6,3.3,3.3,0,0,0-1.009,1.135,4.8,4.8,0,0,0-.52,1.781h-1.923a5.841,5.841,0,0,1,.662-2.475,5.03,5.03,0,0,1,1.466-1.671,6.091,6.091,0,0,1,2.081-.946,10.172,10.172,0,0,1,2.506-.3,9.675,9.675,0,0,1,2.317.268,5.375,5.375,0,0,1,1.892.851,3.957,3.957,0,0,1,1.261,1.56,5.638,5.638,0,0,1,.457,2.4v8.89q0,1.1.394,1.4t1.592-.142v1.482q-.221.063-.646.189a2.955,2.955,0,0,1-.835.126,3.773,3.773,0,0,1-.851-.095,1.459,1.459,0,0,1-.757-.3,1.845,1.845,0,0,1-.457-.567,2.334,2.334,0,0,1-.236-.725,5.22,5.22,0,0,1-.063-.836,8.21,8.21,0,0,1-2.743,2.018,8.073,8.073,0,0,1-3.342.694,7.479,7.479,0,0,1-2.065-.284,5,5,0,0,1-1.75-.883,4.37,4.37,0,0,1-1.2-1.466,4.491,4.491,0,0,1-.441-2.065q0-4.161,5.706-4.918Zm3.184.946a9.265,9.265,0,0,1-2.427.662q-1.229.158-2.459.252a6.935,6.935,0,0,0-3.389.977,2.8,2.8,0,0,0-1.214,2.491,2.7,2.7,0,0,0,.3,1.308,2.757,2.757,0,0,0,.788.914,3.32,3.32,0,0,0,1.135.536,5.023,5.023,0,0,0,1.309.173,8.586,8.586,0,0,0,2.207-.284,5.962,5.962,0,0,0,1.907-.867,4.421,4.421,0,0,0,1.34-1.482,4.281,4.281,0,0,0,.5-2.128Z" transform="translate(-565.333 -617.378)" fill="#fff"/>
        <path id="Path_6424" data-name="Path 6424" d="M780.78,620.345h-1.892v-22.7h1.892v8.985a5.854,5.854,0,0,1,2.506-2.286,7.526,7.526,0,0,1,3.326-.773,6.942,6.942,0,0,1,3.231.709,6.636,6.636,0,0,1,2.27,1.891,8.14,8.14,0,0,1,1.34,2.759,12.121,12.121,0,0,1,.441,3.279,13.376,13.376,0,0,1-.41,3.373,7.392,7.392,0,0,1-1.308,2.727,6.28,6.28,0,0,1-2.286,1.813,7.785,7.785,0,0,1-3.373.662,6.175,6.175,0,0,1-1.608-.221,7.6,7.6,0,0,1-1.592-.63,6.382,6.382,0,0,1-1.419-1.025,5.107,5.107,0,0,1-1.056-1.434h-.063Zm0-8.228a10.056,10.056,0,0,0,.362,2.758,6.71,6.71,0,0,0,1.056,2.207,4.974,4.974,0,0,0,1.734,1.466,5.085,5.085,0,0,0,2.364.536,5.619,5.619,0,0,0,2.207-.425,5.05,5.05,0,0,0,1.766-1.245,5.809,5.809,0,0,0,1.182-2,8.035,8.035,0,0,0,.425-2.727,10.673,10.673,0,0,0-.252-2.885,6.891,6.891,0,0,0-1.009-2.349,5,5,0,0,0-1.781-1.592,5.3,5.3,0,0,0-2.538-.583,4.811,4.811,0,0,0-2.317.552,5.353,5.353,0,0,0-1.734,1.482,6.824,6.824,0,0,0-1.088,2.176A9.009,9.009,0,0,0,780.78,612.117Z" transform="translate(-620.854 -597.647)" fill="#fff"/>
        <path id="Path_6425" data-name="Path 6425" d="M851.507,634.969a4.8,4.8,0,0,0,1.592,2.979,5.392,5.392,0,0,0,3.295.867,5.7,5.7,0,0,0,1.8-.252,3.608,3.608,0,0,0,1.245-.678,2.924,2.924,0,0,0,.741-.961,2.636,2.636,0,0,0,.252-1.135,2.09,2.09,0,0,0-.772-1.781,5.837,5.837,0,0,0-1.939-.914,24.979,24.979,0,0,0-2.522-.568,12.342,12.342,0,0,1-2.522-.709,5.051,5.051,0,0,1-1.939-1.356,3.662,3.662,0,0,1-.772-2.491,4.256,4.256,0,0,1,1.5-3.357,6.244,6.244,0,0,1,4.24-1.308,7.238,7.238,0,0,1,4.3,1.182,5.408,5.408,0,0,1,2,3.957h-1.923a3.538,3.538,0,0,0-1.435-2.664,5.345,5.345,0,0,0-2.979-.773,4.245,4.245,0,0,0-2.743.773,2.5,2.5,0,0,0-.946,2.033,1.983,1.983,0,0,0,.772,1.687,6.277,6.277,0,0,0,1.939.946q1.166.363,2.522.646a12.421,12.421,0,0,1,2.522.8,5.522,5.522,0,0,1,1.939,1.4,3.613,3.613,0,0,1,.772,2.459,4.151,4.151,0,0,1-.5,2.065,4.391,4.391,0,0,1-1.387,1.5,6.436,6.436,0,0,1-2.1.9,11.127,11.127,0,0,1-2.664.3,7.2,7.2,0,0,1-2.569-.426,5.576,5.576,0,0,1-1.907-1.182,5.443,5.443,0,0,1-1.229-1.765,6.2,6.2,0,0,1-.5-2.176Z" transform="translate(-675.22 -617.378)" fill="#fff"/>
      </g>
    </g>
    <g id="Group_2239" data-name="Group 2239" transform="translate(261.384 218.499)">
      <path id="Path_6426" data-name="Path 6426" d="M346.4,339.98c-7.678,0-18.059-1.88-23.914-10.838a22.333,22.333,0,0,1-1.945-3.692,24.224,24.224,0,0,1-12.736-1.964c-4.878-2.2-8.116-7.879-8.248-14.471-.144-7.164,3.382-13.423,9.2-16.333a21.345,21.345,0,0,1,11.638-2.125A21.838,21.838,0,0,1,325.207,283c4.888-4.979,12.017-7.5,21.191-7.5,5.545,0,15.787,1.018,22.183,7.819a17.6,17.6,0,0,1,3.891,6.732,28.342,28.342,0,0,1,1.4,7.958v19.914a22.055,22.055,0,0,1-3.583,11.213C364.457,338.1,354.078,339.98,346.4,339.98Zm-18-16.86a13.818,13.818,0,0,0,1.073,1.853c3.147,4.567,8.843,6.883,16.929,6.883,8.247,0,13.994-2.406,17.08-7.151a13.8,13.8,0,0,0,.908-1.629C351.543,316.221,335.246,320.687,328.4,323.12ZM318.344,298.6a12.835,12.835,0,0,0-5.953,1.344c-1.137.568-4.835,2.89-4.714,8.9.068,3.367,1.492,6.34,3.464,7.228a16.132,16.132,0,0,0,7.726,1.383V298.613Q318.6,298.605,318.344,298.6Zm8.647,1.2v15.205a75.511,75.511,0,0,1,10.736-2.729,57.938,57.938,0,0,1,15.337-.754,40.843,40.843,0,0,1,12.684,3.187V299.531a22.148,22.148,0,0,1-3.244,1.075l-.047.012A71.551,71.551,0,0,1,346.4,302.07a92.673,92.673,0,0,1-19.126-2.209Zm1.711-7.942.146.029a84.535,84.535,0,0,0,17.549,2.054,64.014,64.014,0,0,0,14.135-1.221c4.665-1.211,2.16-3.81,2.16-3.81-3.138-3.364-9.077-5.293-16.3-5.293-6.857,0-12.01,1.68-15.316,4.992A13.435,13.435,0,0,0,328.7,291.863Zm36.138,1.2Z" transform="translate(-299.551 -275.499)" fill="#fff"/>
      <g id="Group_2238" data-name="Group 2238">
        <g id="Group_2237" data-name="Group 2237" clip-path="url(#clip-path)">
          <g id="Group_2236" data-name="Group 2236" transform="translate(4.593 2.666)">
            <path id="Path_6427" data-name="Path 6427" d="M389.795,299.432s3.164.45,8.306,1.306c5.439-5.575,10.178-6.76,10.178-6.76l-7.912-6.939S391.493,291.3,389.795,299.432Z" transform="translate(-373.542 -287.039)" fill="#fff" opacity="0.41"/>
            <path id="Path_6428" data-name="Path 6428" d="M379.8,375.562s3.935.368,8.124,1.193c.592,5.311.846,13.181.846,13.181l-9.985.169S379.034,378.451,379.8,375.562Z" transform="translate(-365.071 -355.114)" fill="#fff" opacity="0.41"/>
            <path id="Path_6429" data-name="Path 6429" d="M335.829,448.28a25.365,25.365,0,0,1-1.672-7.987c-9.9-1.516-10.112-5.07-10.112-5.07l-4.612,9.309S325.357,451.1,335.829,448.28Z" transform="translate(-319.433 -400.994)" fill="#fff" opacity="0.41"/>
            <path id="Path_6430" data-name="Path 6430" d="M418.345,433.708s.158,5.466,1.4,8.109C427.6,440,433.8,438.876,433.8,438.876l-.9-9.026S421.843,431.023,418.345,433.708Z" transform="translate(-395.497 -396.862)" fill="#fff" opacity="0.41"/>
            <path id="Path_6431" data-name="Path 6431" d="M533.775,438.863s1.362-2.7,1.362-8.361c-6.939-4.183-15.316-4.437-15.316-4.437l.127,9.816A37.761,37.761,0,0,1,533.775,438.863Z" transform="translate(-473.533 -393.951)" fill="#fff" opacity="0.41"/>
            <path id="Path_6432" data-name="Path 6432" d="M584.814,347.975s8.818-3.223,6.724-9.481c0,0,2.133.568,1.964,17.379.057,2.257.057,4.231.057,4.231l-9.139-.9Z" transform="translate(-523.21 -326.608)" fill="#fff" opacity="0.58"/>
          </g>
        </g>
      </g>
    </g>
  </g>
</svg>
