<svg id="Group_2239" data-name="Group 2239" xmlns="http://www.w3.org/2000/svg" xmlns:xlink="http://www.w3.org/1999/xlink" width="66.996" height="58.126" viewBox="0 0 66.996 58.126">
  <defs>
    <linearGradient id="linear-gradient" y1="0.5" x2="1" y2="0.5" gradientUnits="objectBoundingBox">
      <stop offset="0" stop-color="#93c6e9"/>
      <stop offset="1" stop-color="#4b7b9d"/>
    </linearGradient>
    <clipPath id="clip-path">
      <path id="Path_6433" data-name="Path 6433" d="M341.78,333.625c-6.921,0-16.279-1.695-21.557-9.77a20.131,20.131,0,0,1-1.753-3.328,21.836,21.836,0,0,1-11.48-1.77c-4.4-1.982-7.316-7.1-7.435-13.045-.13-6.458,3.049-12.1,8.3-14.723a19.242,19.242,0,0,1,10.491-1.916,19.686,19.686,0,0,1,4.337-6.811c4.406-4.488,10.833-6.764,19.1-6.764,5,0,14.231.917,20,7.048a15.869,15.869,0,0,1,3.507,6.069,25.549,25.549,0,0,1,1.262,7.173v17.952a19.881,19.881,0,0,1-3.23,10.108C358.06,331.929,348.7,333.625,341.78,333.625Zm-16.228-15.2a12.453,12.453,0,0,0,.967,1.671c2.837,4.117,7.971,6.2,15.26,6.2,7.434,0,12.615-2.169,15.4-6.446a12.438,12.438,0,0,0,.818-1.468C346.419,312.207,331.728,316.234,325.552,318.427Zm-9.061-22.1a11.57,11.57,0,0,0-5.366,1.211c-1.025.512-4.359,2.605-4.25,8.026.061,3.035,1.345,5.715,3.123,6.516a14.542,14.542,0,0,0,6.965,1.246V296.334Q316.726,296.328,316.492,296.328Zm7.795,1.082v13.707a68.069,68.069,0,0,1,9.678-2.46,52.228,52.228,0,0,1,13.825-.679,36.816,36.816,0,0,1,11.434,2.873V297.163a19.966,19.966,0,0,1-2.924.969l-.043.011a64.5,64.5,0,0,1-14.476,1.309,83.539,83.539,0,0,1-17.241-1.991Zm1.543-7.16.132.026a76.2,76.2,0,0,0,15.819,1.852,57.706,57.706,0,0,0,12.741-1.1c4.206-1.092,1.948-3.434,1.948-3.434-2.828-3.032-8.182-4.771-14.689-4.771-6.181,0-10.826,1.514-13.807,4.5A12.111,12.111,0,0,0,325.829,290.25Zm32.576,1.083Z" transform="translate(-299.551 -275.499)" fill="none"/>
    </clipPath>
    <linearGradient id="linear-gradient-2" x1="0.295" y1="1.134" x2="0.728" y2="0.122" gradientUnits="objectBoundingBox">
      <stop offset="0" stop-color="#4b7b9d"/>
      <stop offset="0.05" stop-color="#4b7b9d" stop-opacity="0.937"/>
      <stop offset="0.617" stop-color="#4b7b9d" stop-opacity="0.267"/>
      <stop offset="0.869" stop-color="#4b7b9d" stop-opacity="0"/>
    </linearGradient>
    <linearGradient id="linear-gradient-3" x1="0.5" x2="0.5" y2="1" gradientUnits="objectBoundingBox">
      <stop offset="0" stop-color="#4b7b9d"/>
      <stop offset="0.393" stop-color="#4b7b9d" stop-opacity="0.573"/>
      <stop offset="0.805" stop-color="#4b7b9d" stop-opacity="0.161"/>
      <stop offset="1" stop-color="#4b7b9d" stop-opacity="0"/>
    </linearGradient>
    <linearGradient id="linear-gradient-4" x1="0.976" y1="0.5" x2="0.342" y2="0.5" xlink:href="#linear-gradient-3"/>
    <linearGradient id="linear-gradient-5" x1="0.015" y1="0.674" x2="1.01" y2="0.33" xlink:href="#linear-gradient-3"/>
    <linearGradient id="linear-gradient-6" x1="1" y1="0.5" x2="0" y2="0.5" gradientUnits="objectBoundingBox">
      <stop offset="0" stop-color="#355e82"/>
      <stop offset="0.281" stop-color="#3b668a" stop-opacity="0.694"/>
      <stop offset="0.769" stop-color="#467597" stop-opacity="0.196"/>
      <stop offset="1" stop-color="#4b7b9d" stop-opacity="0"/>
    </linearGradient>
    <linearGradient id="linear-gradient-7" x1="0.5" x2="0.5" y2="1" gradientUnits="objectBoundingBox">
      <stop offset="0.005" stop-color="#355e82"/>
      <stop offset="0.285" stop-color="#355e82" stop-opacity="0.694"/>
      <stop offset="0.771" stop-color="#355e82" stop-opacity="0.196"/>
      <stop offset="1" stop-color="#355e82" stop-opacity="0"/>
    </linearGradient>
  </defs>
  <path id="Path_6426" data-name="Path 6426" d="M341.78,333.625c-6.921,0-16.279-1.695-21.557-9.77a20.131,20.131,0,0,1-1.753-3.328,21.836,21.836,0,0,1-11.48-1.77c-4.4-1.982-7.316-7.1-7.435-13.045-.13-6.458,3.049-12.1,8.3-14.723a19.242,19.242,0,0,1,10.491-1.916,19.686,19.686,0,0,1,4.337-6.811c4.406-4.488,10.833-6.764,19.1-6.764,5,0,14.231.917,20,7.048a15.869,15.869,0,0,1,3.507,6.069,25.549,25.549,0,0,1,1.262,7.173v17.952a19.881,19.881,0,0,1-3.23,10.108C358.06,331.929,348.7,333.625,341.78,333.625Zm-16.228-15.2a12.453,12.453,0,0,0,.967,1.671c2.837,4.117,7.971,6.2,15.26,6.2,7.434,0,12.615-2.169,15.4-6.446a12.438,12.438,0,0,0,.818-1.468C346.419,312.207,331.728,316.234,325.552,318.427Zm-9.061-22.1a11.57,11.57,0,0,0-5.366,1.211c-1.025.512-4.359,2.605-4.25,8.026.061,3.035,1.345,5.715,3.123,6.516a14.542,14.542,0,0,0,6.965,1.246V296.334Q316.726,296.328,316.492,296.328Zm7.795,1.082v13.707a68.069,68.069,0,0,1,9.678-2.46,52.228,52.228,0,0,1,13.825-.679,36.816,36.816,0,0,1,11.434,2.873V297.163a19.966,19.966,0,0,1-2.924.969l-.043.011a64.5,64.5,0,0,1-14.476,1.309,83.539,83.539,0,0,1-17.241-1.991Zm1.543-7.16.132.026a76.2,76.2,0,0,0,15.819,1.852,57.706,57.706,0,0,0,12.741-1.1c4.206-1.092,1.948-3.434,1.948-3.434-2.828-3.032-8.182-4.771-14.689-4.771-6.181,0-10.826,1.514-13.807,4.5A12.111,12.111,0,0,0,325.829,290.25Zm32.576,1.083Z" transform="translate(-299.551 -275.499)" fill="url(#linear-gradient)"/>
  <g id="Group_2238" data-name="Group 2238">
    <g id="Group_2237" data-name="Group 2237" clip-path="url(#clip-path)">
      <g id="Group_2236" data-name="Group 2236" transform="translate(4.14 2.403)">
        <path id="Path_6427" data-name="Path 6427" d="M389.795,298.211s2.852.405,7.488,1.177c4.9-5.026,9.175-6.094,9.175-6.094l-7.132-6.255S391.326,290.884,389.795,298.211Z" transform="translate(-375.144 -287.039)" opacity="0.41" fill="url(#linear-gradient-2)"/>
        <path id="Path_6428" data-name="Path 6428" d="M379.7,375.562s3.547.331,7.323,1.075c.534,4.787.763,11.882.763,11.882l-9,.152S379.009,378.166,379.7,375.562Z" transform="translate(-366.423 -357.129)" opacity="0.41" fill="url(#linear-gradient-3)"/>
        <path id="Path_6429" data-name="Path 6429" d="M334.213,446.993a22.865,22.865,0,0,1-1.507-7.2c-8.925-1.366-9.116-4.57-9.116-4.57l-4.157,8.391S324.773,449.533,334.213,446.993Z" transform="translate(-319.433 -404.367)" opacity="0.41" fill="url(#linear-gradient-4)"/>
        <path id="Path_6430" data-name="Path 6430" d="M418.345,433.328s.142,4.927,1.266,7.31c7.074-1.634,12.668-2.651,12.668-2.651l-.814-8.136S421.5,430.907,418.345,433.328Z" transform="translate(-397.749 -400.113)" opacity="0.41" fill="url(#linear-gradient-5)"/>
        <path id="Path_6431" data-name="Path 6431" d="M532.4,437.6s1.227-2.431,1.227-7.537a32.1,32.1,0,0,0-13.807-4l.114,8.848A34.04,34.04,0,0,1,532.4,437.6Z" transform="translate(-478.095 -397.116)" opacity="0.41" fill="url(#linear-gradient-6)"/>
        <path id="Path_6432" data-name="Path 6432" d="M584.775,347.04s7.949-2.906,6.061-8.547c0,0,1.923.512,1.77,15.666.051,2.034.051,3.814.051,3.814l-8.238-.813Z" transform="translate(-529.242 -327.78)" opacity="0.58" fill="url(#linear-gradient-7)"/>
      </g>
    </g>
  </g>
</svg>
