<svg xmlns="http://www.w3.org/2000/svg" xmlns:xlink="http://www.w3.org/1999/xlink" width="251.872" height="58.126" viewBox="0 0 251.872 58.126">
  <defs>
    <linearGradient id="linear-gradient" y1="0.5" x2="1" y2="0.5" gradientUnits="objectBoundingBox">
      <stop offset="0" stop-color="#93c6e9"/>
      <stop offset="1" stop-color="#4b7b9d"/>
    </linearGradient>
    <clipPath id="clip-path">
      <path id="Path_6433" data-name="Path 6433" d="M341.78,333.625c-6.921,0-16.279-1.695-21.557-9.77a20.131,20.131,0,0,1-1.753-3.328,21.836,21.836,0,0,1-11.48-1.77c-4.4-1.982-7.316-7.1-7.435-13.045-.13-6.458,3.049-12.1,8.3-14.723a19.242,19.242,0,0,1,10.491-1.916,19.686,19.686,0,0,1,4.337-6.811c4.406-4.488,10.833-6.764,19.1-6.764,5,0,14.231.917,20,7.048a15.869,15.869,0,0,1,3.507,6.069,25.549,25.549,0,0,1,1.262,7.173v17.952a19.881,19.881,0,0,1-3.23,10.108C358.06,331.929,348.7,333.625,341.78,333.625Zm-16.228-15.2a12.453,12.453,0,0,0,.967,1.671c2.837,4.117,7.971,6.2,15.26,6.2,7.434,0,12.615-2.169,15.4-6.446a12.438,12.438,0,0,0,.818-1.468C346.419,312.207,331.728,316.234,325.552,318.427Zm-9.061-22.1a11.57,11.57,0,0,0-5.366,1.211c-1.025.512-4.359,2.605-4.25,8.026.061,3.035,1.345,5.715,3.123,6.516a14.542,14.542,0,0,0,6.965,1.246V296.334Q316.726,296.328,316.492,296.328Zm7.795,1.082v13.707a68.069,68.069,0,0,1,9.678-2.46,52.228,52.228,0,0,1,13.825-.679,36.816,36.816,0,0,1,11.434,2.873V297.163a19.966,19.966,0,0,1-2.924.969l-.043.011a64.5,64.5,0,0,1-14.476,1.309,83.539,83.539,0,0,1-17.241-1.991Zm1.543-7.16.132.026a76.2,76.2,0,0,0,15.819,1.852,57.706,57.706,0,0,0,12.741-1.1c4.206-1.092,1.948-3.434,1.948-3.434-2.828-3.032-8.182-4.771-14.689-4.771-6.181,0-10.826,1.514-13.807,4.5A12.111,12.111,0,0,0,325.829,290.25Zm32.576,1.083Z" transform="translate(-299.551 -275.499)" fill="none"/>
    </clipPath>
    <linearGradient id="linear-gradient-2" x1="0.295" y1="1.134" x2="0.728" y2="0.122" gradientUnits="objectBoundingBox">
      <stop offset="0" stop-color="#4b7b9d"/>
      <stop offset="0.05" stop-color="#4b7b9d" stop-opacity="0.937"/>
      <stop offset="0.617" stop-color="#4b7b9d" stop-opacity="0.267"/>
      <stop offset="0.869" stop-color="#4b7b9d" stop-opacity="0"/>
    </linearGradient>
    <linearGradient id="linear-gradient-3" x1="0.5" x2="0.5" y2="1" gradientUnits="objectBoundingBox">
      <stop offset="0" stop-color="#4b7b9d"/>
      <stop offset="0.393" stop-color="#4b7b9d" stop-opacity="0.573"/>
      <stop offset="0.805" stop-color="#4b7b9d" stop-opacity="0.161"/>
      <stop offset="1" stop-color="#4b7b9d" stop-opacity="0"/>
    </linearGradient>
    <linearGradient id="linear-gradient-4" x1="0.976" y1="0.5" x2="0.342" y2="0.5" xlink:href="#linear-gradient-3"/>
    <linearGradient id="linear-gradient-5" x1="0.015" y1="0.674" x2="1.01" y2="0.33" xlink:href="#linear-gradient-3"/>
    <linearGradient id="linear-gradient-6" x1="1" y1="0.5" x2="0" y2="0.5" gradientUnits="objectBoundingBox">
      <stop offset="0" stop-color="#355e82"/>
      <stop offset="0.281" stop-color="#3b668a" stop-opacity="0.694"/>
      <stop offset="0.769" stop-color="#467597" stop-opacity="0.196"/>
      <stop offset="1" stop-color="#4b7b9d" stop-opacity="0"/>
    </linearGradient>
    <linearGradient id="linear-gradient-7" x1="0.5" x2="0.5" y2="1" gradientUnits="objectBoundingBox">
      <stop offset="0.005" stop-color="#355e82"/>
      <stop offset="0.285" stop-color="#355e82" stop-opacity="0.694"/>
      <stop offset="0.771" stop-color="#355e82" stop-opacity="0.196"/>
      <stop offset="1" stop-color="#355e82" stop-opacity="0"/>
    </linearGradient>
  </defs>
  <g id="Group_2540" data-name="Group 2540" transform="translate(-130.683 -275.499)">
    <g id="Group_2235" data-name="Group 2235" transform="translate(213.781 292.541)">
      <g id="Group_2234" data-name="Group 2234" transform="translate(0 0)">
        <path id="Path_6414" data-name="Path 6414" d="M109.732,601.306H98.909v4.343h9.935V609.2H98.909v5.259h11.323v3.677h-15.5V597.684h15Z" transform="translate(-94.732 -597.676)" fill="#8e9ba8"/>
        <path id="Path_6415" data-name="Path 6415" d="M174.92,631.934a2.633,2.633,0,0,0,.544,1.5,3.687,3.687,0,0,0,2.733.791,4.182,4.182,0,0,0,1.861-.347,1.162,1.162,0,0,0,.134-2.054,22.684,22.684,0,0,0-4.137-1.193,8.592,8.592,0,0,1-3.632-1.6,3.458,3.458,0,0,1-1.054-2.72,4.714,4.714,0,0,1,1.648-3.6,6.628,6.628,0,0,1,4.638-1.505,8.522,8.522,0,0,1,4.624,1.131,4.843,4.843,0,0,1,2.051,3.906h-3.955a2.34,2.34,0,0,0-.431-1.207,2.719,2.719,0,0,0-2.227-.8,3.206,3.206,0,0,0-1.843.4,1.158,1.158,0,0,0-.55.944,1.032,1.032,0,0,0,.584.985,25.265,25.265,0,0,0,4.129,1.1,7.576,7.576,0,0,1,3.543,1.679,3.812,3.812,0,0,1,1.166,2.845,4.592,4.592,0,0,1-1.676,3.67q-1.676,1.423-5.179,1.422-3.573,0-5.277-1.506a4.893,4.893,0,0,1-1.7-3.837Z" transform="translate(-155.048 -616.302)" fill="#8e9ba8"/>
        <path id="Path_6416" data-name="Path 6416" d="M255.454,623.631a8.062,8.062,0,0,1,1.851,5.745,9.07,9.07,0,0,1-1.809,6.092,5.87,5.87,0,0,1-4.658,2.1,4.884,4.884,0,0,1-3.017-.9,5.829,5.829,0,0,1-1.285-1.457v7.882h-3.913V622.007h3.788v2.234a6.361,6.361,0,0,1,1.368-1.554,5.052,5.052,0,0,1,3.156-1.013A5.981,5.981,0,0,1,255.454,623.631Zm-3.035,2.845a2.814,2.814,0,0,0-2.614-1.346,2.974,2.974,0,0,0-2.986,2.04,7.662,7.662,0,0,0-.421,2.748,4.361,4.361,0,0,0,1.415,3.7,3.248,3.248,0,0,0,1.991.625,2.9,2.9,0,0,0,2.545-1.277,6.687,6.687,0,0,0,.07-6.494Z" transform="translate(-211.828 -616.671)" fill="#8e9ba8"/>
        <path id="Path_6417" data-name="Path 6417" d="M326.579,621.548q.076.007.34.021v4.052q-.374-.042-.666-.055t-.472-.014a3.28,3.28,0,0,0-3.205,1.554,6.047,6.047,0,0,0-.458,2.692v7.229h-3.983V621.9h3.774v2.636a8.358,8.358,0,0,1,1.6-2.068,4.345,4.345,0,0,1,2.886-.93Q326.5,621.541,326.579,621.548Z" transform="translate(-271.617 -616.565)" fill="#8e9ba8"/>
        <path id="Path_6418" data-name="Path 6418" d="M368.576,622.05a6.151,6.151,0,0,1,2.614,2.238,7.433,7.433,0,0,1,1.205,3.127,19.338,19.338,0,0,1,.13,3H361.509a3.628,3.628,0,0,0,1.582,3.191,4.014,4.014,0,0,0,2.18.569,3.072,3.072,0,0,0,3.01-1.735h4.038a4.938,4.938,0,0,1-1.466,2.734,7.35,7.35,0,0,1-5.69,2.206,8.243,8.243,0,0,1-5.327-1.861q-2.308-1.861-2.308-6.055a8.189,8.189,0,0,1,2.084-6.027,7.291,7.291,0,0,1,5.409-2.1A8.612,8.612,0,0,1,368.576,622.05Zm-5.916,3.416a4.108,4.108,0,0,0-1.053,2.341h6.813a3.3,3.3,0,0,0-1.053-2.39,3.467,3.467,0,0,0-2.346-.815A3.136,3.136,0,0,0,362.66,625.466Z" transform="translate(-302.807 -616.407)" fill="#8e9ba8"/>
        <path id="Path_6419" data-name="Path 6419" d="M430.452,631.934a2.631,2.631,0,0,0,.544,1.5,3.688,3.688,0,0,0,2.733.791,4.181,4.181,0,0,0,1.861-.347,1.162,1.162,0,0,0,.134-2.054,22.693,22.693,0,0,0-4.137-1.193,8.594,8.594,0,0,1-3.632-1.6,3.458,3.458,0,0,1-1.054-2.72,4.714,4.714,0,0,1,1.648-3.6,6.628,6.628,0,0,1,4.638-1.505,8.521,8.521,0,0,1,4.624,1.131,4.843,4.843,0,0,1,2.051,3.906h-3.955a2.337,2.337,0,0,0-.431-1.207,2.719,2.719,0,0,0-2.226-.8,3.206,3.206,0,0,0-1.844.4,1.158,1.158,0,0,0-.55.944,1.032,1.032,0,0,0,.584.985,25.266,25.266,0,0,0,4.129,1.1,7.576,7.576,0,0,1,3.543,1.679,3.812,3.812,0,0,1,1.166,2.845,4.592,4.592,0,0,1-1.676,3.67q-1.676,1.423-5.179,1.422-3.573,0-5.276-1.506a4.893,4.893,0,0,1-1.7-3.837Z" transform="translate(-357.372 -616.302)" fill="#8e9ba8"/>
        <path id="Path_6420" data-name="Path 6420" d="M498.166,631.934a2.63,2.63,0,0,0,.544,1.5,3.687,3.687,0,0,0,2.732.791,4.183,4.183,0,0,0,1.862-.347,1.162,1.162,0,0,0,.134-2.054,22.7,22.7,0,0,0-4.137-1.193,8.592,8.592,0,0,1-3.633-1.6,3.459,3.459,0,0,1-1.055-2.72,4.713,4.713,0,0,1,1.648-3.6,6.628,6.628,0,0,1,4.638-1.505,8.522,8.522,0,0,1,4.624,1.131,4.843,4.843,0,0,1,2.051,3.906h-3.955a2.339,2.339,0,0,0-.431-1.207,2.719,2.719,0,0,0-2.227-.8,3.206,3.206,0,0,0-1.844.4,1.157,1.157,0,0,0-.549.944,1.031,1.031,0,0,0,.584.985,25.254,25.254,0,0,0,4.129,1.1,7.574,7.574,0,0,1,3.543,1.679,3.812,3.812,0,0,1,1.166,2.845,4.592,4.592,0,0,1-1.676,3.67q-1.675,1.423-5.179,1.422-3.573,0-5.277-1.506a4.893,4.893,0,0,1-1.7-3.837Z" transform="translate(-410.986 -616.302)" fill="#8e9ba8"/>
        <path id="Path_6421" data-name="Path 6421" d="M575.48,634.7q-1.915,2.364-5.814,2.364t-5.814-2.364a9.384,9.384,0,0,1,0-11.362,8.246,8.246,0,0,1,11.628,0,9.385,9.385,0,0,1,0,11.362Zm-3.164-2.186a7.061,7.061,0,0,0,0-7,3.515,3.515,0,0,0-5.335,0,7.015,7.015,0,0,0,0,7,3.5,3.5,0,0,0,5.335,0Z" transform="translate(-464.654 -616.091)" fill="#8e9ba8"/>
        <path id="Path_6422" data-name="Path 6422" d="M643.773,618.108V597.647h1.932V616.46h10.97v1.648Z" transform="translate(-529.449 -597.647)" fill="#8e9ba8"/>
        <path id="Path_6423" data-name="Path 6423" d="M714.192,629.841q.483-.057,1.151-.171a4.333,4.333,0,0,0,1.094-.313.905.905,0,0,0,.525-.668,4.192,4.192,0,0,0,.1-.867,2.908,2.908,0,0,0-.838-2.146,3.913,3.913,0,0,0-2.828-.838,7.858,7.858,0,0,0-1.62.156,3.528,3.528,0,0,0-1.293.54,2.976,2.976,0,0,0-.909,1.023,4.325,4.325,0,0,0-.469,1.606h-1.734a5.265,5.265,0,0,1,.6-2.231,4.534,4.534,0,0,1,1.322-1.506,5.49,5.49,0,0,1,1.876-.853,9.168,9.168,0,0,1,2.259-.27,8.722,8.722,0,0,1,2.089.242,4.844,4.844,0,0,1,1.705.767,3.568,3.568,0,0,1,1.137,1.407,5.083,5.083,0,0,1,.412,2.16v8.014q0,.995.355,1.265t1.435-.128v1.336q-.2.057-.583.171a2.662,2.662,0,0,1-.753.114,3.4,3.4,0,0,1-.767-.085,1.315,1.315,0,0,1-.682-.27,1.663,1.663,0,0,1-.412-.511,2.1,2.1,0,0,1-.213-.654,4.709,4.709,0,0,1-.057-.753,7.4,7.4,0,0,1-2.472,1.819,7.277,7.277,0,0,1-3.012.625,6.743,6.743,0,0,1-1.861-.256,4.5,4.5,0,0,1-1.577-.8,3.939,3.939,0,0,1-1.08-1.322,4.048,4.048,0,0,1-.4-1.861q0-3.751,5.144-4.433Zm2.87.852a8.352,8.352,0,0,1-2.188.6q-1.108.142-2.216.227a6.251,6.251,0,0,0-3.055.881,2.525,2.525,0,0,0-1.094,2.245,2.431,2.431,0,0,0,.27,1.179,2.485,2.485,0,0,0,.711.824,2.994,2.994,0,0,0,1.023.483,4.528,4.528,0,0,0,1.18.156,7.742,7.742,0,0,0,1.989-.256,5.375,5.375,0,0,0,1.719-.782,3.986,3.986,0,0,0,1.208-1.336,3.859,3.859,0,0,0,.455-1.918Z" transform="translate(-579.265 -617.962)" fill="#8e9ba8"/>
        <path id="Path_6424" data-name="Path 6424" d="M780.593,618.108h-1.705V597.647h1.705v8.1a5.276,5.276,0,0,1,2.259-2.06,6.785,6.785,0,0,1,3-.7,6.258,6.258,0,0,1,2.913.64,5.98,5.98,0,0,1,2.046,1.7,7.337,7.337,0,0,1,1.208,2.487,10.926,10.926,0,0,1,.4,2.956,12.059,12.059,0,0,1-.37,3.041,6.664,6.664,0,0,1-1.179,2.458,5.661,5.661,0,0,1-2.06,1.634,7.018,7.018,0,0,1-3.041.6,5.568,5.568,0,0,1-1.449-.2,6.851,6.851,0,0,1-1.435-.568,5.757,5.757,0,0,1-1.279-.924,4.6,4.6,0,0,1-.952-1.293h-.057Zm0-7.417a9.066,9.066,0,0,0,.327,2.487,6.047,6.047,0,0,0,.952,1.989,4.483,4.483,0,0,0,1.563,1.322,4.584,4.584,0,0,0,2.131.483,5.066,5.066,0,0,0,1.99-.383,4.554,4.554,0,0,0,1.592-1.122,5.237,5.237,0,0,0,1.066-1.8,7.242,7.242,0,0,0,.384-2.458,9.622,9.622,0,0,0-.227-2.6,6.21,6.21,0,0,0-.909-2.117,4.506,4.506,0,0,0-1.606-1.435,4.773,4.773,0,0,0-2.288-.526,4.337,4.337,0,0,0-2.089.5,4.826,4.826,0,0,0-1.563,1.336,6.153,6.153,0,0,0-.981,1.961A8.121,8.121,0,0,0,780.593,610.691Z" transform="translate(-636.43 -597.647)" fill="#8e9ba8"/>
        <path id="Path_6425" data-name="Path 6425" d="M851.318,633.819a4.322,4.322,0,0,0,1.435,2.685,4.86,4.86,0,0,0,2.97.781,5.134,5.134,0,0,0,1.62-.227,3.253,3.253,0,0,0,1.122-.611,2.636,2.636,0,0,0,.668-.867,2.376,2.376,0,0,0,.227-1.023,1.884,1.884,0,0,0-.7-1.606,5.263,5.263,0,0,0-1.748-.824,22.518,22.518,0,0,0-2.274-.512,11.129,11.129,0,0,1-2.273-.639,4.552,4.552,0,0,1-1.748-1.222,3.3,3.3,0,0,1-.7-2.245,3.837,3.837,0,0,1,1.35-3.026A5.629,5.629,0,0,1,855.1,623.3a6.525,6.525,0,0,1,3.879,1.066,4.875,4.875,0,0,1,1.8,3.567h-1.733a3.189,3.189,0,0,0-1.293-2.4,4.818,4.818,0,0,0-2.686-.7,3.827,3.827,0,0,0-2.472.7,2.252,2.252,0,0,0-.852,1.833,1.787,1.787,0,0,0,.7,1.52,5.658,5.658,0,0,0,1.748.853q1.051.327,2.274.583a11.2,11.2,0,0,1,2.273.725,4.979,4.979,0,0,1,1.748,1.265,3.257,3.257,0,0,1,.7,2.217,3.742,3.742,0,0,1-.455,1.861,3.959,3.959,0,0,1-1.251,1.35,5.8,5.8,0,0,1-1.89.81,10.03,10.03,0,0,1-2.4.27,6.486,6.486,0,0,1-2.316-.384,5.027,5.027,0,0,1-1.719-1.066,4.906,4.906,0,0,1-1.108-1.591,5.591,5.591,0,0,1-.455-1.961Z" transform="translate(-692.405 -617.962)" fill="#8e9ba8"/>
      </g>
    </g>
    <g id="Group_2239" data-name="Group 2239" transform="translate(130.683 275.499)">
      <path id="Path_6426" data-name="Path 6426" d="M341.78,333.625c-6.921,0-16.279-1.695-21.557-9.77a20.131,20.131,0,0,1-1.753-3.328,21.836,21.836,0,0,1-11.48-1.77c-4.4-1.982-7.316-7.1-7.435-13.045-.13-6.458,3.049-12.1,8.3-14.723a19.242,19.242,0,0,1,10.491-1.916,19.686,19.686,0,0,1,4.337-6.811c4.406-4.488,10.833-6.764,19.1-6.764,5,0,14.231.917,20,7.048a15.869,15.869,0,0,1,3.507,6.069,25.549,25.549,0,0,1,1.262,7.173v17.952a19.881,19.881,0,0,1-3.23,10.108C358.06,331.929,348.7,333.625,341.78,333.625Zm-16.228-15.2a12.453,12.453,0,0,0,.967,1.671c2.837,4.117,7.971,6.2,15.26,6.2,7.434,0,12.615-2.169,15.4-6.446a12.438,12.438,0,0,0,.818-1.468C346.419,312.207,331.728,316.234,325.552,318.427Zm-9.061-22.1a11.57,11.57,0,0,0-5.366,1.211c-1.025.512-4.359,2.605-4.25,8.026.061,3.035,1.345,5.715,3.123,6.516a14.542,14.542,0,0,0,6.965,1.246V296.334Q316.726,296.328,316.492,296.328Zm7.795,1.082v13.707a68.069,68.069,0,0,1,9.678-2.46,52.228,52.228,0,0,1,13.825-.679,36.816,36.816,0,0,1,11.434,2.873V297.163a19.966,19.966,0,0,1-2.924.969l-.043.011a64.5,64.5,0,0,1-14.476,1.309,83.539,83.539,0,0,1-17.241-1.991Zm1.543-7.16.132.026a76.2,76.2,0,0,0,15.819,1.852,57.706,57.706,0,0,0,12.741-1.1c4.206-1.092,1.948-3.434,1.948-3.434-2.828-3.032-8.182-4.771-14.689-4.771-6.181,0-10.826,1.514-13.807,4.5A12.111,12.111,0,0,0,325.829,290.25Zm32.576,1.083Z" transform="translate(-299.551 -275.499)" fill="url(#linear-gradient)"/>
      <g id="Group_2238" data-name="Group 2238">
        <g id="Group_2237" data-name="Group 2237" clip-path="url(#clip-path)">
          <g id="Group_2236" data-name="Group 2236" transform="translate(4.14 2.403)">
            <path id="Path_6427" data-name="Path 6427" d="M389.795,298.211s2.852.405,7.488,1.177c4.9-5.026,9.175-6.094,9.175-6.094l-7.132-6.255S391.326,290.884,389.795,298.211Z" transform="translate(-375.144 -287.039)" opacity="0.41" fill="url(#linear-gradient-2)"/>
            <path id="Path_6428" data-name="Path 6428" d="M379.7,375.562s3.547.331,7.323,1.075c.534,4.787.763,11.882.763,11.882l-9,.152S379.009,378.166,379.7,375.562Z" transform="translate(-366.423 -357.129)" opacity="0.41" fill="url(#linear-gradient-3)"/>
            <path id="Path_6429" data-name="Path 6429" d="M334.213,446.993a22.865,22.865,0,0,1-1.507-7.2c-8.925-1.366-9.116-4.57-9.116-4.57l-4.157,8.391S324.773,449.533,334.213,446.993Z" transform="translate(-319.433 -404.367)" opacity="0.41" fill="url(#linear-gradient-4)"/>
            <path id="Path_6430" data-name="Path 6430" d="M418.345,433.328s.142,4.927,1.266,7.31c7.074-1.634,12.668-2.651,12.668-2.651l-.814-8.136S421.5,430.907,418.345,433.328Z" transform="translate(-397.749 -400.113)" opacity="0.41" fill="url(#linear-gradient-5)"/>
            <path id="Path_6431" data-name="Path 6431" d="M532.4,437.6s1.227-2.431,1.227-7.537a32.1,32.1,0,0,0-13.807-4l.114,8.848A34.04,34.04,0,0,1,532.4,437.6Z" transform="translate(-478.095 -397.116)" opacity="0.41" fill="url(#linear-gradient-6)"/>
            <path id="Path_6432" data-name="Path 6432" d="M584.775,347.04s7.949-2.906,6.061-8.547c0,0,1.923.512,1.77,15.666.051,2.034.051,3.814.051,3.814l-8.238-.813Z" transform="translate(-529.242 -327.78)" opacity="0.58" fill="url(#linear-gradient-7)"/>
          </g>
        </g>
      </g>
    </g>
  </g>
</svg>
