<svg width="24" height="24" viewBox="0 0 24 24" fill="none" xmlns="http://www.w3.org/2000/svg">
<path d="M17.8754 17.5642C17.4703 17.5651 17.0689 17.4858 16.6946 17.3308C16.3203 17.1758 15.9803 16.9482 15.6944 16.6612L12.5444 13.5112C12.4329 13.4053 12.285 13.3462 12.1312 13.3462C11.9773 13.3462 11.8294 13.4053 11.7179 13.5112L8.55591 16.6732C8.27007 16.9604 7.93015 17.188 7.55579 17.343C7.18144 17.498 6.78008 17.5773 6.37491 17.5762H5.75391L9.74391 21.5662C10.9889 22.8112 13.0094 22.8112 14.2544 21.5662L18.2549 17.5642H17.8754ZM6.37491 6.4222C7.19991 6.4222 7.97391 6.7432 8.55591 7.3252L11.7179 10.4872C11.7722 10.5416 11.8368 10.5848 11.9078 10.6143C11.9789 10.6437 12.055 10.6589 12.1319 10.6589C12.2088 10.6589 12.285 10.6437 12.356 10.6143C12.427 10.5848 12.4916 10.5416 12.5459 10.4872L15.6959 7.3372C15.9816 7.05022 16.3212 6.82267 16.6953 6.66768C17.0694 6.51269 17.4705 6.43334 17.8754 6.4342H18.2549L14.2544 2.4337C13.6561 1.83584 12.8449 1.5 11.9992 1.5C11.1534 1.5 10.3422 1.83584 9.74391 2.4337L5.75391 6.4237L6.37491 6.4222Z" fill="#cdb09c"/>
<path d="M21.5657 9.74491L19.1477 7.32691C19.0934 7.3492 19.0354 7.36091 18.9767 7.36141H17.8772C17.3087 7.36141 16.7522 7.59241 16.3517 7.99441L13.2017 11.1444C13.0616 11.2852 12.8951 11.397 12.7117 11.4732C12.5283 11.5495 12.3316 11.5887 12.133 11.5887C11.9343 11.5887 11.7377 11.5495 11.5543 11.4732C11.3708 11.397 11.2043 11.2852 11.0642 11.1444L7.90223 7.98091C7.49655 7.5769 6.94776 7.3494 6.37523 7.34791H5.02523C4.96926 7.34746 4.91385 7.33679 4.86173 7.31641L2.43473 9.74491C1.18973 10.9899 1.18973 13.0104 2.43473 14.2569L4.86173 16.6839C4.91327 16.6632 4.96817 16.652 5.02373 16.6509H6.37523C6.94523 16.6509 7.50023 16.4214 7.90223 16.0194L11.0627 12.8559C11.3511 12.5813 11.734 12.4282 12.1322 12.4282C12.5304 12.4282 12.9133 12.5813 13.2017 12.8559L16.3517 16.0059C16.7522 16.4079 17.3087 16.6374 17.8772 16.6374H18.9767C19.0367 16.6374 19.0952 16.6524 19.1477 16.6734L21.5657 14.2554C22.8107 13.0104 22.8107 10.9899 21.5657 9.74491Z" fill="#cdb09c"/>
</svg>
