<svg width="24" height="25" viewBox="0 0 24 25" fill="none" xmlns="http://www.w3.org/2000/svg">
<path d="M19.589 6.80416C18.5903 6.59054 17.686 6.06352 17.0078 5.29992C16.3297 4.53632 15.9131 3.57607 15.819 2.55916V2.11816H12.374V15.7902C12.3718 16.3954 12.1801 16.9848 11.8257 17.4755C11.4713 17.9662 10.9721 18.3335 10.3982 18.5259C9.8243 18.7182 9.20455 18.7259 8.62605 18.5478C8.04756 18.3698 7.53939 18.0149 7.17296 17.5332C6.80084 17.0433 6.59442 16.4477 6.58363 15.8327C6.57283 15.2176 6.75823 14.6151 7.11293 14.1126C7.46763 13.61 7.97319 13.2335 8.55631 13.0376C9.13943 12.8417 9.76978 12.8366 10.356 13.0232V9.52316C9.04881 9.34246 7.71788 9.57486 6.54931 10.1878C5.38074 10.8008 4.433 11.7637 3.83864 12.9419C3.24428 14.12 3.03303 15.4545 3.23444 16.7586C3.43586 18.0627 4.03986 19.2712 4.96196 20.2152C5.84132 21.1149 6.96885 21.7322 8.20062 21.9883C9.43239 22.2443 10.7125 22.1275 11.8776 21.6528C13.0427 21.178 14.0399 20.3669 14.7419 19.3228C15.4439 18.2788 15.8189 17.0493 15.819 15.7912V8.80516C17.2112 9.8005 18.8805 10.3342 20.592 10.3312V6.90816C20.2549 6.90858 19.9188 6.87372 19.589 6.80416Z" fill="white"/>
</svg>
